<svg xmlns="http://www.w3.org/2000/svg" version="1.1" xmlns:xlink="http://www.w3.org/1999/xlink" xmlns:svgjs="http://svgjs.com/svgjs" width="2000" height="2000" preserveAspectRatio="none" viewBox="0 0 2000 2000"><g mask="url(&quot;#SvgjsMask2105&quot;)" fill="none"><rect width="2000" height="2000" x="0" y="0" fill="url(#SvgjsRadialGradient2106)"></rect><path d="M0 0L132.1 0L0 549.53z" fill="rgba(255, 255, 255, .1)"></path><path d="M0 549.53L132.1 0L260.22 0L0 666.3199999999999z" fill="rgba(255, 255, 255, .075)"></path><path d="M0 666.3199999999999L260.22 0L621.22 0L0 1141.67z" fill="rgba(255, 255, 255, .05)"></path><path d="M0 1141.67L621.22 0L817.74 0L0 1606.19z" fill="rgba(255, 255, 255, .025)"></path><path d="M2000 2000L1556.1100000000001 2000L2000 1921.66z" fill="rgba(0, 0, 0, .1)"></path><path d="M2000 1921.66L1556.1100000000001 2000L692.2900000000001 2000L2000 1701.15z" fill="rgba(0, 0, 0, .075)"></path><path d="M2000 1701.15L692.29 2000L651.5 2000L2000 882.0900000000001z" fill="rgba(0, 0, 0, .05)"></path><path d="M2000 882.0900000000001L651.5 2000L590.39 2000L2000 847.1800000000002z" fill="rgba(0, 0, 0, .025)"></path></g><defs><mask id="SvgjsMask2105"><rect width="2000" height="2000" fill="#ffffff"></rect></mask><radialGradient cx="50%" cy="0%" r="2236.07" gradientUnits="userSpaceOnUse" id="SvgjsRadialGradient2106"><stop stop-color="rgba(38, 29, 54, 1)" offset="0"></stop><stop stop-color="rgba(0, 122, 109, 1)" offset="1"></stop></radialGradient></defs></svg>